<!-- Generator: Adobe Illustrator 18.0.0, SVG Export Plug-In  -->
<svg version="1.1"
	 xmlns="http://www.w3.org/2000/svg" xmlns:xlink="http://www.w3.org/1999/xlink" xmlns:a="http://ns.adobe.com/AdobeSVGViewerExtensions/3.0/"
	 x="0px" y="0px" width="174.2px" height="37.4px" viewBox="0 0 174.2 37.4" enable-background="new 0 0 174.2 37.4"
	 xml:space="preserve">
<defs>
</defs>
<g>
	<g>
		<path fill="#2C4355" d="M13.3,2.5c3.6,0,6.5,2.1,6.5,4.7c0,0.4-0.4,9.1-0.7,14.2H7.9C7.5,17,6.8,7.7,6.8,7.2
			C6.8,4.6,9.7,2.5,13.3,2.5 M13.3,1.8C9.3,1.8,6,4.2,6,7.2c0,0.2,1.2,14.9,1.2,14.9h12.5c0,0,0.7-14.8,0.7-14.9
			C20.5,4.2,17.2,1.8,13.3,1.8L13.3,1.8z"/>
		<path fill="#2C4355" d="M13.5,13L13.5,13c-0.4,0-0.7,0.3-0.7,0.7V21c0,0.4,0.3,0.7,0.7,0.7h0c0.4,0,0.7-0.3,0.7-0.7v-7.2
			C14.2,13.3,13.9,13,13.5,13z"/>
		<path fill="#F07821" d="M18.6,0c-0.4,1.1-0.2,2.4,0.7,3.4s2.1,1.4,3.2,1.2L18.6,0z"/>
		<path fill="#F07821" d="M3.6,4C4.7,4.3,6,4.1,7,3.3s1.4-2.1,1.2-3.2L3.6,4z"/>
		<path fill="#2C4355" d="M13.5,7.8c-1.6,0-3,1.3-3,3c0,1.6,1.3,3,3,3s3-1.3,3-3C16.4,9.1,15.1,7.8,13.5,7.8z M13.5,12.1
			c-0.7,0-1.2-0.6-1.2-1.2c0-0.7,0.6-1.2,1.2-1.2c0.7,0,1.2,0.6,1.2,1.2C14.7,11.6,14.2,12.1,13.5,12.1z"/>
		<g>
			<path fill="#2C4355" d="M14.1,30.3h-1c-0.6,0-1.1,0-1.1-0.1v-0.3c0-0.1,0.5-0.1,1.1-0.1h1c0.6,0,1.1,0,1.1,0.1v0.3
				C15.2,30.3,14.7,30.3,14.1,30.3z"/>
			<path fill="#2C4355" d="M14.1,31.1h-1c-0.6,0-1.1,0-1.1-0.1v-0.3c0-0.1,0.5-0.1,1.1-0.1h1c0.6,0,1.1,0,1.1,0.1V31
				C15.2,31,14.7,31.1,14.1,31.1z"/>
			<path fill="#2C4355" d="M14.1,31.9h-1c-0.6,0-1.1,0-1.1-0.1v-0.3c0-0.1,0.5-0.1,1.1-0.1h1c0.6,0,1.1,0,1.1,0.1v0.3
				C15.2,31.8,14.7,31.9,14.1,31.9z"/>
		</g>
		<g>
			<path fill="#5CBFA2" d="M1.3,24.2c0.1,0.3,0.2,0.6,0.3,0.8l0,0l-1.1,0.6c-0.2-0.4-0.3-0.8-0.4-1.2c-0.7-2.9,1.1-5.7,3.9-6.4
				l0.3,1.2C2.2,19.8,0.8,22,1.3,24.2z"/>
		</g>
		<circle fill="#F9BE2C" cx="5.6" cy="18.4" r="0.9"/>
		<path fill="#5CBFA2" d="M19.6,22.7H7.3c-0.8,0-1.4,0.6-1.4,1.4v3.8c0,0.8,0.6,1.4,1.4,1.4h12.3c0.8,0,1.4-0.6,1.4-1.4v-3.8
			C21,23.3,20.4,22.7,19.6,22.7z M13.1,27c0,0.6-0.4,1-0.9,1h-2.2c-0.5,0-0.9-0.5-0.9-1v-1.7c0-0.6,0.4-1,0.9-1h2.2
			c0.5,0,0.9,0.5,0.9,1V27z M17.8,27.5c0,0.3-0.4,0.5-0.9,0.5h-2.2c-0.5,0-0.9-0.2-0.9-0.5v-0.8c0-0.3,0.4-0.5,0.9-0.5h2.2
			c0.5,0,0.9,0.2,0.9,0.5V27.5z M17.8,25.4c0,0.3-0.4,0.5-0.9,0.5h-2.2c-0.5,0-0.9-0.2-0.9-0.5v-0.8c0-0.3,0.4-0.5,0.9-0.5h2.2
			c0.5,0,0.9,0.2,0.9,0.5V25.4z"/>
		<path fill="#2C4355" d="M19.9,33c0.7,0,1.2,0.5,1.2,1.2v1.5c0,0.7-0.5,1.2-1.2,1.2H7.7c-0.7,0-1.2-0.5-1.2-1.2v-1.5
			C6.5,33.5,7,33,7.7,33H19.9 M19.9,32.5H7.7c-1,0-1.7,0.8-1.7,1.7v1.5c0,1,0.8,1.7,1.7,1.7h12.1c1,0,1.7-0.8,1.7-1.7v-1.5
			C21.6,33.2,20.8,32.5,19.9,32.5L19.9,32.5z"/>
		<circle fill="#F07821" cx="18.9" cy="34.9" r="1.4"/>
		<circle fill="#F07821" cx="13.6" cy="34.9" r="1.4"/>
		<circle fill="#F07821" cx="8.5" cy="34.9" r="1.4"/>
		<circle fill="#F9BE2C" cx="21.3" cy="18.4" r="0.9"/>
		<g>
			<path fill="#5CBFA2" d="M25.6,24.1c-0.1,0.3-0.2,0.6-0.3,0.8l0,0l1.1,0.6c0.2-0.4,0.3-0.8,0.4-1.2c0.7-2.9-1.1-5.7-3.9-6.4
				l-0.3,1.2C24.8,19.7,26.2,21.9,25.6,24.1z"/>
		</g>
		<circle fill="#F9BE2C" cx="25.2" cy="26.5" r="1.2"/>
		<circle fill="#F9BE2C" cx="2" cy="26.5" r="1.2"/>
	</g>
	<g>
		<path fill="#2C4355" d="M38.2,25.5h2.1v-12h-2.1V10H47c1.5,0,2.4,0.1,3.5,0.4c2,0.7,3.3,2.3,3.3,4.5c0,1.6-0.8,3.2-2.2,4V19
			c2.2,0.7,3,2.5,3,4.3c0,2.8-2,4.7-4.2,5.3c-1,0.2-1.8,0.3-2.8,0.3h-9.3V25.5z M47.3,17.3c1.2,0,1.7-0.8,1.7-1.8
			c0-0.7-0.3-1.4-0.9-1.6c-0.3-0.1-0.7-0.2-1.2-0.2H45v3.6H47.3z M47.7,25.2c0.3,0,0.6-0.1,0.9-0.2c0.7-0.3,1.1-1.2,1.1-2.1
			c0-1.1-0.6-1.9-2-1.9H45v4.2H47.7z"/>
		<path fill="#2C4355" d="M56.8,25.5h2.1v-12h-2.1V10h8.5c1.4,0,2.7,0.1,3.8,0.4c2.3,0.7,3.8,2.5,3.8,5.3c0,2.5-1.2,4.2-3.1,5.2v0.1
			c0,0,0.7,0.3,1.2,1.1l1.4,2.8c0.2,0.4,0.6,0.6,1.2,0.6h0.7v3.4h-3.1c-1.5,0-2.1-0.4-2.7-1.4l-2.3-4.4c-0.3-0.6-0.7-0.8-1.6-0.8
			h-0.9v3.2h2v3.4h-8.8V25.5z M65.8,18.6c1.5,0,2.4-0.7,2.4-2.5c0-0.9-0.2-1.7-1-2.1c-0.4-0.2-1-0.3-1.8-0.3h-1.7v4.8H65.8z"/>
		<path fill="#2C4355" d="M76.3,25.5h2.1v-12h-2.1V10h6.9l5.9,10c0.4,0.8,0.8,1.9,0.8,1.9H90c0,0-0.2-1.3-0.2-2.1v-6.4h-2.2V10h9
			v3.4h-2.1v15.4h-4.7l-5.9-9.9c-0.4-0.8-0.8-1.9-0.8-1.9H83c0,0,0.2,1.3,0.2,2.1v6.3h2.2v3.4h-9V25.5z"/>
		<path fill="#2C4355" d="M98.9,25.5h2.1v-12h-2.1V10h8.3c1.4,0,2.7,0.1,3.9,0.4c3.7,1.1,6.3,4.3,6.3,9c0,4.3-2.2,7.5-5.7,8.8
			c-1.4,0.5-2.8,0.6-4.5,0.6h-8.3V25.5z M107.1,25.2c1.2,0,2-0.1,2.9-0.5c1.6-0.8,2.6-2.7,2.6-5.2c0-2.8-1.2-4.6-2.9-5.3
			c-0.8-0.3-1.6-0.4-2.5-0.4h-1.4v11.5H107.1z"/>
		<path fill="#F07821" d="M119.8,27.4h2.4V11.9h-2.4v-1.5h8.4c1.3,0,2.3,0.2,3.2,0.6c1.3,0.6,2.3,2.1,2.3,4.1c0,1.9-0.9,3.3-2.4,4
			v0.1c1.9,0.6,3.1,2.3,3.1,4.6c0,2.3-1.3,4.1-3.1,4.8c-0.8,0.3-1.8,0.4-2.8,0.4h-8.6V27.4z M128.6,18.4c1.9,0,3.1-1.3,3.1-3.2
			c0-1.2-0.5-2.2-1.3-2.7c-0.6-0.3-1.3-0.5-2.2-0.5h-4.1v6.5H128.6z M128.5,27.3c0.6,0,1.3-0.1,1.9-0.3c1.3-0.5,2-1.8,2-3.4
			c0-2.2-1.5-3.7-3.7-3.7h-4.7v7.3H128.5z"/>
		<path fill="#F07821" d="M146.9,10c5.3,0,9.5,4.1,9.5,9.5c0,5.4-4.2,9.7-9.5,9.7c-5.2,0-9.4-4.3-9.4-9.7
			C137.5,14.2,141.7,10,146.9,10z M146.9,27.5c4.2,0,7.5-3.5,7.5-8c0-4.4-3.4-7.8-7.5-7.8c-4.1,0-7.5,3.3-7.5,7.8
			C139.4,24,142.8,27.5,146.9,27.5z"/>
		<path fill="#F07821" d="M163.1,27.4h2.4V11.9h-5.2v3h-1.7v-4.6h15.5v4.6h-1.7v-3h-5.2v15.4h2.4v1.5h-6.7V27.4z"/>
	</g>
</g>
</svg>
